{
  "title": "Maze Runner: The Scorch Trials (2015) CAMRip [RUS]",
  "uid": 12477150,
  "size": 790430636,
  "categoryP": "video",
  "categoryS": "movies",
  "magnet": "?xt=urn:btih:e57d5c24d07eeea0cd8cb286c9d9ee945532842f&amp;dn=Maze+Runner%3A+The+Scorch+Trials+%282015%29+CAMRip+%5BRUS%5D&amp;tr=udp%3A%2F%2Ftracker.openbittorrent.com%3A80&amp;tr=udp%3A%2F%2Fopen.demonii.com%3A1337&amp;tr=udp%3A%2F%2Ftracker.coppersurfer.tk%3A6969&amp;tr=udp%3A%2F%2Fexodus.desync.com%3A6969",
  "seeders": 255,
  "leechers": 38,
  "uploader": "nbdjod",
  "files": 1,
  "time": 1443001538,
  "description": "Maze Runner: The Scorch Trials (2015) CAMRip\n\nAudio - RUSSIAN!!!!\n\nMI:\nGeneral\nFormat                                   : AVI\nFormat/Info                              : Audio Video Interleave\nFile size                                : 754 MiB\nDuration                                 : 2h 3mn\nOverall bit rate                         : 855 Kbps\nMovie name                               : BegUsch1y.v.1abirin3e.1spi3anie.0gnem.2015.D.CAMRip.ELEKTRI4KA.uniongang.tv\nWriting application                      : VirtualDubMod 1.5.10.3 | www.virtualdub-fr.org || (build 2550/release)\nWriting library                          : VirtualDub build 35491/release\nCopyright                                : UNIONGANG&amp;RUSTORRENTS\n\nVideo\nID                                       : 0\nFormat                                   : MPEG-4 Visual\nFormat profile                           : Advanced Simple@L5\nFormat settings, BVOP                    : 2\nFormat settings, QPel                    : No\nFormat settings, GMC                     : No warppoints\nFormat settings, Matrix                  : Default (H.263)\nMuxing mode                              : Packed bitstream\nCodec ID                                 : XVID\nCodec ID/Hint                            : XviD\nDuration                                 : 2h 3mn\nBit rate                                 : 715 Kbps\nWidth                                    : 640 pixels\nHeight                                   : 352 pixels\nDisplay aspect ratio                     : 16:9\nFrame rate                               : 29.970 fps\nColor space                              : YUV\nChroma subsampling                       : 4:2:0\nBit depth                                : 8 bits\nScan type                                : Progressive\nCompression mode                         : Lossy\nBits/(Pixel*Frame)                       : 0.106\nStream size                              : 631 MiB (84%)\nWriting library                          : XviD 73\n\nAudio\nID                                       : 1\nFormat                                   : AC-3\nFormat/Info                              : Audio Coding 3\nMode extension                           : CM (complete main)\nFormat settings, Endianness              : Big\nCodec ID                                 : 2000\nDuration                                 : 2h 3mn\nBit rate mode                            : Constant\nBit rate                                 : 128 Kbps\nChannel(s)                               : 2 channels\nChannel positions                        : Front: L R\nSampling rate                            : 48.0 KHz\nCompression mode                         : Lossy\nStream size                              : 113 MiB (15%)\nAlignment                                : Split accross interleaves\nInterleave, duration                     : 33 ms (1.00 video frame)\nInterleave, preload duration             : 500 ms\n\n\n\nScreens: &lt;a href=&quot;\nhttp://i1.imageban.ru/out/2015/09/23/2a6e49067f6294d12d67226e7e3e71c3.png&quot; rel=&quot;nofollow&quot; target=&quot;_NEW&quot;&gt;\nhttp://i1.imageban.ru/out/2015/09/23/2a6e49067f6294d12d67226e7e3e71c3.png&lt;/a&gt; &lt;a href=&quot;\nhttp://i6.imageban.ru/out/2015/09/23/4957d9f6df0c2f511fa5a75f4ad5a163.png&quot; rel=&quot;nofollow&quot; target=&quot;_NEW&quot;&gt;\nhttp://i6.imageban.ru/out/2015/09/23/4957d9f6df0c2f511fa5a75f4ad5a163.png&lt;/a&gt; &lt;a href=&quot;\nhttp://i5.imageban.ru/out/2015/09/23/2b75098ff51b5c715359d5924c29a892.png&quot; rel=&quot;nofollow&quot; target=&quot;_NEW&quot;&gt;\nhttp://i5.imageban.ru/out/2015/09/23/2b75098ff51b5c715359d5924c29a892.png&lt;/a&gt; &lt;a href=&quot;\nhttp://i1.imageban.ru/out/2015/09/23/1b18e81f83be0873ae2559f343141cc3.png&quot; rel=&quot;nofollow&quot; target=&quot;_NEW&quot;&gt;\nhttp://i1.imageban.ru/out/2015/09/23/1b18e81f83be0873ae2559f343141cc3.png&lt;/a&gt;",
  "parsed": {
    "xt": "urn:btih:e57d5c24d07eeea0cd8cb286c9d9ee945532842f",
    "dn": "Maze Runner: The Scorch Trials (2015) CAMRip [RUS]",
    "tr": [
      "udp://exodus.desync.com:6969",
      "udp://open.demonii.com:1337",
      "udp://tracker.coppersurfer.tk:6969",
      "udp://tracker.openbittorrent.com:80"
    ],
    "infoHash": "e57d5c24d07eeea0cd8cb286c9d9ee945532842f",
    "infoHashBuffer": {
      "type": "Buffer",
      "data": [
        229,
        125,
        92,
        36,
        208,
        126,
        238,
        160,
        205,
        140,
        178,
        134,
        201,
        217,
        238,
        148,
        85,
        50,
        132,
        47
      ]
    },
    "name": "Maze Runner: The Scorch Trials (2015) CAMRip [RUS]",
    "announce": [
      "udp://exodus.desync.com:6969",
      "udp://open.demonii.com:1337",
      "udp://tracker.coppersurfer.tk:6969",
      "udp://tracker.openbittorrent.com:80"
    ],
    "urlList": []
  },
  "previous": 293,
  "peers": 17,
  "last_updated": "2016-12-25T16:39:12.582Z"
}